<?xml version="1.0" encoding="UTF-8" standalone="no"?>
<!-- Created with Inkscape (http://www.inkscape.org/) -->

<svg
   xmlns:dc="http://purl.org/dc/elements/1.1/"
   xmlns:cc="http://creativecommons.org/ns#"
   xmlns:rdf="http://www.w3.org/1999/02/22-rdf-syntax-ns#"
   xmlns:svg="http://www.w3.org/2000/svg"
   xmlns="http://www.w3.org/2000/svg"
   xmlns:sodipodi="http://sodipodi.sourceforge.net/DTD/sodipodi-0.dtd"
   xmlns:inkscape="http://www.inkscape.org/namespaces/inkscape"
   width="210mm"
   height="297mm"
   viewBox="0 0 210 297"
   version="1.1"
   id="svg3767"
   sodipodi:docname="largeblue.svg"
   inkscape:version="0.92.3 (2405546, 2018-03-11)">
  <defs
     id="defs3761" />
  <sodipodi:namedview
     id="base"
     pagecolor="#ffffff"
     bordercolor="#666666"
     borderopacity="1.0"
     inkscape:pageopacity="0.0"
     inkscape:pageshadow="2"
     inkscape:zoom="0.35"
     inkscape:cx="409.95272"
     inkscape:cy="560"
     inkscape:document-units="mm"
     inkscape:current-layer="layer1"
     showgrid="false"
     inkscape:snap-nodes="true"
     inkscape:snap-smooth-nodes="true"
     inkscape:object-nodes="false"
     inkscape:window-width="1016"
     inkscape:window-height="713"
     inkscape:window-x="628"
     inkscape:window-y="215"
     inkscape:window-maximized="0" />
  <metadata
     id="metadata3764">
    <rdf:RDF>
      <cc:Work
         rdf:about="">
        <dc:format>image/svg+xml</dc:format>
        <dc:type
           rdf:resource="http://purl.org/dc/dcmitype/StillImage" />
        <dc:title />
      </cc:Work>
    </rdf:RDF>
  </metadata>
  <g
     inkscape:label="Layer 1"
     inkscape:groupmode="layer"
     id="layer1">
    <g
       id="g4624"
       transform="matrix(1.5610856,0,0,1.5610856,42.316453,-129.43226)">
      <rect
         y="170.75595"
         x="24.190477"
         height="97.51786"
         width="30.238094"
         id="rect4604"
         style="opacity:1;fill:#803300;stroke-width:0.26458332" />
      <path
         transform="scale(0.26458333)"
         id="path4608"
         d="m 148.57227,645.37695 v 368.57225 h 57.14257 V 645.37695 Z"
         style="opacity:0.27399998;fill:#000000;stroke:#000000;stroke-width:0.99999994px;stroke-linecap:butt;stroke-linejoin:miter;stroke-opacity:1"
         inkscape:connector-curvature="0" />
    </g>
    <g
       id="g4628"
       transform="matrix(1.5610856,0,0,1.5610856,-56.22225,14.540716)">
      <circle
         r="50.270832"
         cy="106.87797"
         cx="102.43154"
         id="path3769"
         style="fill:#008000;stroke-width:0.26458332" />
      <path
         id="path3773"
         transform="scale(0.26458333)"
         d="m 387.14258,213.94727 v 380 a 190,190 0 0 0 190,-190 190,190 0 0 0 -190,-190 z"
         style="opacity:0.28699999;fill:#803300;stroke:#000000;stroke-width:0.99999994px;stroke-linecap:butt;stroke-linejoin:miter;stroke-opacity:1"
         inkscape:connector-curvature="0" />
    </g>
    <g
       id="g4667"
       transform="matrix(1.3149221,0,0,1.3149221,-30.991073,-30.530038)">
      <circle
         style="fill:#008000;stroke-width:0.26458332"
         id="circle4663"
         cx="102.43154"
         cy="106.87797"
         r="50.270832" />
      <path
         style="opacity:0.28699999;fill:#803300;stroke:#000000;stroke-width:0.99999994px;stroke-linecap:butt;stroke-linejoin:miter;stroke-opacity:1"
         d="m 387.14258,213.94727 v 380 a 190,190 0 0 0 190,-190 190,190 0 0 0 -190,-190 z"
         transform="scale(0.26458333)"
         id="path4665"
         inkscape:connector-curvature="0" />
    </g>
    <g
       transform="matrix(0.98713506,0,0,0.98713506,2.6063259,-52.217797)"
       id="g4684">
      <circle
         r="50.270832"
         cy="106.87797"
         cx="102.43154"
         id="circle4680"
         style="fill:#008000;stroke-width:0.26458332" />
      <path
         inkscape:connector-curvature="0"
         id="path4682"
         transform="scale(0.26458333)"
         d="m 387.14258,213.94727 v 380 a 190,190 0 0 0 190,-190 190,190 0 0 0 -190,-190 z"
         style="opacity:0.28699999;fill:#803300;stroke:#000000;stroke-width:0.99999994px;stroke-linecap:butt;stroke-linejoin:miter;stroke-opacity:1" />
    </g>
    <path
       style="opacity:0.27399998;fill:#000080;stroke-width:1.1801064"
       d="M 85.223415,257.19789 C 81.767149,256.36147 74.332479,253.40473 68.701927,250.62736 54.636589,243.68937 41.429125,230.59602 34.55362,216.77409 22.169154,191.8774 23.321938,163.15163 37.620698,140.3465 l 4.728629,-7.54168 -1.821987,-5.68392 C 37.643969,118.12587 38.018392,99.601261 41.274314,90.164156 44.052089,82.11293 50.643419,70.315499 53.851471,67.653054 55.385099,66.380255 55.589999,64.701453 54.945846,58.686462 52.574059,36.539035 66.641544,14.264004 87.461057,7.200551 90.335676,6.225276 95.210118,5.049565 98.293144,4.587864 L 103.89865,3.7484071 V 131.33389 258.91937 l -6.195559,-0.10034 c -3.407557,-0.0553 -9.023409,-0.78471 -12.479676,-1.62112 z"
       id="path5325"
       inkscape:connector-curvature="0" />
    <path
       style="opacity:0.27399998;fill:#000080;stroke-width:1.1801064"
       d="m 87.967214,257.66058 c -3.245292,-0.53965 -11.334266,-3.67973 -17.975496,-6.97799 -19.808943,-9.83769 -32.784993,-24.5979 -39.97323,-45.46939 -2.813828,-8.17012 -3.256773,-11.32088 -3.316461,-23.59079 -0.08179,-16.81178 2.180614,-25.52105 10.328057,-39.75855 l 5.193629,-9.0758 -1.690989,-6.26559 c -1.170412,-4.33668 -1.537354,-10.26196 -1.191923,-19.24677 0.584502,-15.203039 2.901507,-22.430843 11.090157,-34.595228 5.015233,-7.450225 5.271753,-8.223636 4.61605,-13.91757 -0.883301,-7.670353 1.047523,-18.197035 4.792116,-26.126169 3.814447,-8.077046 12.856203,-17.878765 20.159155,-21.853526 5.080078,-2.764925 18.150723,-6.698823 22.425231,-6.749366 1.17111,-0.01384 1.47514,26.250286 1.47514,127.434039 v 127.45149 l -5.015449,-0.13881 c -2.758503,-0.0763 -7.670692,-0.58032 -10.915987,-1.11998 z"
       id="path5327"
       inkscape:connector-curvature="0" />
    <path
       style="opacity:0.27399998;fill:#000080;stroke-width:1.1801064"
       d="m 100.65336,259.2956 3.24529,-0.52578 V 131.39311 c 0,-110.516318 0.22661,-127.376712 1.71207,-127.376712 10.35077,0 25.22569,7.090853 33.72335,16.075879 9.27435,9.806264 12.18589,17.261945 12.74785,32.643988 l 0.46495,12.726623 5.0649,7.553095 c 7.77215,11.590291 10.24116,19.223892 10.89013,33.669657 0.4045,9.00348 0.05,14.31744 -1.29648,19.43708 l -1.85315,7.04596 3.43242,5.34899 c 25.60838,39.90719 11.11253,92.21922 -31.25302,112.78456 -12.16249,5.904 -17.60284,7.3233 -30.74602,8.0212 -5.15767,0.27386 -7.917203,0.26134 -6.13229,-0.0279 z"
       id="path5329"
       inkscape:connector-curvature="0" />
    <path
       style="opacity:0.27399998;fill:#000080;stroke-width:1.1801064"
       d="m 103.90572,141.64885 c 0.004,-64.988384 0.35066,-122.574797 0.77061,-127.969802 l 0.76354,-9.8091006 4.8349,0.7321206 c 13.38466,2.026766 31.46661,15.070308 37.07261,26.742599 2.83599,5.904833 4.91383,17.425548 4.92672,27.316397 0.009,6.048675 0.56583,7.670477 4.76778,13.858131 7.05937,10.395374 9.37869,16.817437 10.85958,30.069555 1.11386,9.96772 1.03132,13.4898 -0.49911,21.2961 l -1.83368,9.35319 4.48837,7.6707 c 13.82787,23.63202 14.78222,52.21576 2.54432,76.20406 -11.56633,22.67184 -37.16675,39.78523 -63.09721,42.17923 l -5.6055,0.51753 z"
       id="path5331"
       inkscape:connector-curvature="0" />
  </g>
</svg>
