<?xml version="1.0" encoding="UTF-8" standalone="no"?>
<!-- Created with Inkscape (http://www.inkscape.org/) -->

<svg
   xmlns:dc="http://purl.org/dc/elements/1.1/"
   xmlns:cc="http://creativecommons.org/ns#"
   xmlns:rdf="http://www.w3.org/1999/02/22-rdf-syntax-ns#"
   xmlns:svg="http://www.w3.org/2000/svg"
   xmlns="http://www.w3.org/2000/svg"
   xmlns:sodipodi="http://sodipodi.sourceforge.net/DTD/sodipodi-0.dtd"
   xmlns:inkscape="http://www.inkscape.org/namespaces/inkscape"
   width="210mm"
   height="297mm"
   viewBox="0 0 210 297"
   version="1.1"
   id="svg8"
   sodipodi:docname="bluelarge.svg"
   inkscape:version="0.92.3 (2405546, 2018-03-11)">
  <defs
     id="defs2">
    <inkscape:path-effect
       only_selected="false"
       apply_with_weight="true"
       apply_no_weight="true"
       helper_size="0"
       steps="2"
       weight="33.333333"
       is_visible="true"
       id="path-effect823"
       effect="bspline" />
    <inkscape:path-effect
       effect="bspline"
       id="path-effect817"
       is_visible="true"
       weight="33.333333"
       steps="2"
       helper_size="0"
       apply_no_weight="true"
       apply_with_weight="true"
       only_selected="false" />
  </defs>
  <sodipodi:namedview
     id="base"
     pagecolor="#ffffff"
     bordercolor="#666666"
     borderopacity="1.0"
     inkscape:pageopacity="0.0"
     inkscape:pageshadow="2"
     inkscape:zoom="0.35"
     inkscape:cx="-64.285714"
     inkscape:cy="560"
     inkscape:document-units="mm"
     inkscape:current-layer="layer1"
     showgrid="false"
     inkscape:window-width="1920"
     inkscape:window-height="1017"
     inkscape:window-x="-8"
     inkscape:window-y="-8"
     inkscape:window-maximized="1" />
  <metadata
     id="metadata5">
    <rdf:RDF>
      <cc:Work
         rdf:about="">
        <dc:format>image/svg+xml</dc:format>
        <dc:type
           rdf:resource="http://purl.org/dc/dcmitype/StillImage" />
        <dc:title></dc:title>
      </cc:Work>
    </rdf:RDF>
  </metadata>
  <g
     inkscape:label="Layer 1"
     inkscape:groupmode="layer"
     id="layer1">
    <g
       id="g1033"
       transform="translate(26.458333,202.59524)">
      <rect
         y="15.029762"
         x="65.011902"
         height="60.476189"
         width="30.238094"
         id="rect1018"
         style="opacity:0.503;fill:#aa4400;stroke:#a02c2c;stroke-width:5;stroke-linejoin:miter;stroke-miterlimit:4;stroke-dasharray:none;stroke-opacity:1;paint-order:normal" />
      <path
         id="path1020"
         transform="scale(0.26458333)"
         d="M 302.85742,56.804688 V 285.37695 H 360 V 56.804688 Z"
         style="opacity:0.453;fill:#000000;stroke:#000000;stroke-width:0.99999994px;stroke-linecap:butt;stroke-linejoin:miter;stroke-opacity:1"
         inkscape:connector-curvature="0" />
    </g>
    <g
       transform="matrix(1.1113494,0,0,1.1113494,-14.10708,-29.675538)"
       id="g1115">
      <path
         style="fill:#000080;stroke:#00a9ff;stroke-width:5;stroke-linecap:butt;stroke-linejoin:miter;stroke-miterlimit:4;stroke-dasharray:none;stroke-opacity:1;paint-order:normal"
         d="m 97.896099,115.44527 c -12.473241,12.4731 -33.639907,36.91556 -41.955318,48.25491 -8.315411,11.33936 -3.779749,9.57549 2.89752,7.18175 6.677269,-2.39373 15.497334,-5.41775 10.709938,2.51933 -4.787395,7.93708 -23.182899,26.83657 -29.230446,34.5221 -6.047548,7.68554 0.251966,4.15781 6.551414,1.26008 6.299448,-2.89773 12.599365,-5.1657 8.693924,2.77125 -3.905442,7.93695 -18.017269,26.08073 -26.584734,36.6641 -8.567465,10.58337 -11.591225,13.60713 -3.52687,12.09505 8.064356,-1.51209 27.213473,-7.55918 35.906896,-9.44918 8.693422,-1.89 6.929502,0.3779 3.149376,4.78805 -3.780125,4.41016 -9.575014,10.9609 -3.022987,10.20485 6.552028,-0.75605 25.45003,-8.8192 36.411168,-11.59097 10.96114,-2.77177 13.98499,-0.25189 20.0326,3.65385 6.04761,3.90575 15.11912,9.19746 20.66286,10.96121 5.54375,1.76375 7.55963,-1.6e-4 6.67779,-4.15735 -0.88185,-4.1572 -4.66214,-10.70971 1.25946,-9.95374 5.92161,0.75598 21.54482,8.81957 30.49031,12.9773 8.9455,4.15772 11.21337,4.4097 3.52863,-6.5505 -7.68474,-10.96021 -25.32543,-33.13708 -31.62498,-42.83843 -6.29955,-9.70135 -1.25986,-6.92952 6.92953,-2.89782 8.18939,4.0317 19.52888,9.32346 15.24519,1.4e-4 -4.28369,-9.32333 -24.19065,-33.26207 -29.2303,-41.82951 -5.03965,-8.56743 4.78774,-1.76385 12.22126,3.40182 7.43352,5.16566 12.47323,8.69346 6.04768,-4.15763 -6.42555,-12.85109 -24.31661,-42.08156 -35.15176,-56.44464 -10.83514,-14.36308 -14.61491,-13.85911 -27.088151,-1.38602 z"
         id="path1111"
         inkscape:connector-curvature="0"
         inkscape:path-effect="#path-effect817"
         inkscape:original-d="m 106.58928,103.47619 c -21.166398,24.4422 -42.333065,48.88466 -63.499996,73.32738 4.536033,-1.76417 9.071695,-3.52804 13.607143,-5.29167 8.819089,-3.02386 17.639154,-6.04788 26.458333,-9.07142 -18.393913,18.89786 -36.789415,37.79735 -55.184521,56.69642 6.299957,-3.52809 12.599469,-7.05582 18.898809,-10.58333 6.299552,-2.26801 12.599469,-4.53598 18.898809,-6.80357 -14.110134,18.14167 -28.221958,36.28545 -42.333333,54.42857 -3.023594,3.02359 -6.047355,6.04735 -9.071429,9.07143 19.152734,-6.04842 38.301852,-12.09551 57.45238,-18.14286 -1.763596,2.26755 -3.527512,4.53545 -5.291667,6.80357 -5.796118,6.55217 -11.591004,13.10292 -17.386903,19.65477 18.899881,-8.0641 37.797883,-16.12725 56.696425,-24.19048 3.02403,2.51953 6.04788,5.03941 9.07143,7.55952 9.07161,5.29136 18.14312,10.58307 27.21429,15.875 2.01612,-1.76414 4.03201,-3.52804 6.04761,-5.29167 -3.77896,-6.55093 -7.55925,-13.10344 -11.33928,-19.65476 15.62308,8.06313 31.2463,16.12672 46.86905,24.19049 2.2681,0.25169 4.53597,0.50368 6.80357,0.75594 -17.63682,-22.1726 -35.27751,-44.34947 -52.91667,-66.52381 5.03994,2.77156 10.07963,5.54339 15.11905,8.31548 11.33934,5.2913 22.67883,10.58307 34.01786,15.875 C 166.81396,206.53768 146.90701,182.59894 127,158.66071 c 9.82763,6.8033 19.65502,13.60688 29.48214,20.41072 5.03992,3.52749 10.07963,7.05529 15.11905,10.58333 -17.89042,-29.23011 -35.78148,-58.46058 -53.67262,-87.69048 -3.77949,0.50371 -7.55926,1.00768 -11.33929,1.51191 z" />
      <path
         inkscape:connector-curvature="0"
         style="opacity:0.503;fill:#000000;stroke:#000000;stroke-width:0.99999994px;stroke-linecap:butt;stroke-linejoin:miter;stroke-opacity:1"
         d="m 422.64648,400.91016 c -3.98854,32.31661 -0.12849,529.00653 0.13086,561.86523 7.48753,3.28233 14.41974,8.05365 22.9375,13.55469 22.85711,14.76189 57.14299,34.76162 78.09571,41.42772 20.95275,6.6662 28.57122,-7e-4 25.23828,-15.7129 -3.33298,-15.71223 -17.62109,-40.47828 4.75976,-37.62107 22.38089,2.85725 81.43051,33.33457 115.24024,49.04887 33.80976,15.7142 42.38062,16.6665 13.33594,-24.75786 -29.04469,-41.42441 -95.71803,-125.24363 -119.52735,-161.91015 -23.80932,-36.66652 -4.76257,-26.1891 26.18946,-10.95117 30.95202,15.23792 73.81141,35.23774 57.62109,0 -16.19033,-35.23779 -91.42907,-125.71483 -110.47656,-158.09571 -19.0475,-32.38084 18.09426,-6.66637 46.18945,12.85742 28.09519,19.52376 47.14296,32.85621 22.85742,-15.71484 C 580.95274,606.32934 513.33261,495.85206 472.38086,441.56641 451.5003,413.8871 437.55215,400.82457 422.64648,400.91016 Z"
         transform="scale(0.26458333)"
         id="path1113" />
    </g>
    <g
       id="g1037"
       transform="matrix(0.95100625,0,0,0.95100625,2.4027533,-41.794668)">
      <path
         inkscape:original-d="m 106.58928,103.47619 c -21.166398,24.4422 -42.333065,48.88466 -63.499996,73.32738 4.536033,-1.76417 9.071695,-3.52804 13.607143,-5.29167 8.819089,-3.02386 17.639154,-6.04788 26.458333,-9.07142 -18.393913,18.89786 -36.789415,37.79735 -55.184521,56.69642 6.299957,-3.52809 12.599469,-7.05582 18.898809,-10.58333 6.299552,-2.26801 12.599469,-4.53598 18.898809,-6.80357 -14.110134,18.14167 -28.221958,36.28545 -42.333333,54.42857 -3.023594,3.02359 -6.047355,6.04735 -9.071429,9.07143 19.152734,-6.04842 38.301852,-12.09551 57.45238,-18.14286 -1.763596,2.26755 -3.527512,4.53545 -5.291667,6.80357 -5.796118,6.55217 -11.591004,13.10292 -17.386903,19.65477 18.899881,-8.0641 37.797883,-16.12725 56.696425,-24.19048 3.02403,2.51953 6.04788,5.03941 9.07143,7.55952 9.07161,5.29136 18.14312,10.58307 27.21429,15.875 2.01612,-1.76414 4.03201,-3.52804 6.04761,-5.29167 -3.77896,-6.55093 -7.55925,-13.10344 -11.33928,-19.65476 15.62308,8.06313 31.2463,16.12672 46.86905,24.19049 2.2681,0.25169 4.53597,0.50368 6.80357,0.75594 -17.63682,-22.1726 -35.27751,-44.34947 -52.91667,-66.52381 5.03994,2.77156 10.07963,5.54339 15.11905,8.31548 11.33934,5.2913 22.67883,10.58307 34.01786,15.875 C 166.81396,206.53768 146.90701,182.59894 127,158.66071 c 9.82763,6.8033 19.65502,13.60688 29.48214,20.41072 5.03992,3.52749 10.07963,7.05529 15.11905,10.58333 -17.89042,-29.23011 -35.78148,-58.46058 -53.67262,-87.69048 -3.77949,0.50371 -7.55926,1.00768 -11.33929,1.51191 z"
         inkscape:path-effect="#path-effect817"
         inkscape:connector-curvature="0"
         id="path815"
         d="m 97.896099,115.44527 c -12.473241,12.4731 -33.639907,36.91556 -41.955318,48.25491 -8.315411,11.33936 -3.779749,9.57549 2.89752,7.18175 6.677269,-2.39373 15.497334,-5.41775 10.709938,2.51933 -4.787395,7.93708 -23.182899,26.83657 -29.230446,34.5221 -6.047548,7.68554 0.251966,4.15781 6.551414,1.26008 6.299448,-2.89773 12.599365,-5.1657 8.693924,2.77125 -3.905442,7.93695 -18.017269,26.08073 -26.584734,36.6641 -8.567465,10.58337 -11.591225,13.60713 -3.52687,12.09505 8.064356,-1.51209 27.213473,-7.55918 35.906896,-9.44918 8.693422,-1.89 6.929502,0.3779 3.149376,4.78805 -3.780125,4.41016 -9.575014,10.9609 -3.022987,10.20485 6.552028,-0.75605 25.45003,-8.8192 36.411168,-11.59097 10.96114,-2.77177 13.98499,-0.25189 20.0326,3.65385 6.04761,3.90575 15.11912,9.19746 20.66286,10.96121 5.54375,1.76375 7.55963,-1.6e-4 6.67779,-4.15735 -0.88185,-4.1572 -4.66214,-10.70971 1.25946,-9.95374 5.92161,0.75598 21.54482,8.81957 30.49031,12.9773 8.9455,4.15772 11.21337,4.4097 3.52863,-6.5505 -7.68474,-10.96021 -25.32543,-33.13708 -31.62498,-42.83843 -6.29955,-9.70135 -1.25986,-6.92952 6.92953,-2.89782 8.18939,4.0317 19.52888,9.32346 15.24519,1.4e-4 -4.28369,-9.32333 -24.19065,-33.26207 -29.2303,-41.82951 -5.03965,-8.56743 4.78774,-1.76385 12.22126,3.40182 7.43352,5.16566 12.47323,8.69346 6.04768,-4.15763 -6.42555,-12.85109 -24.31661,-42.08156 -35.15176,-56.44464 -10.83514,-14.36308 -14.61491,-13.85911 -27.088151,-1.38602 z"
         style="fill:#000080;stroke:#00a9ff;stroke-width:5;stroke-linecap:butt;stroke-linejoin:miter;stroke-miterlimit:4;stroke-dasharray:none;stroke-opacity:1;paint-order:normal" />
      <path
         id="path819"
         transform="scale(0.26458333)"
         d="m 422.64648,400.91016 c -3.98854,32.31661 -0.12849,529.00653 0.13086,561.86523 7.48753,3.28233 14.41974,8.05365 22.9375,13.55469 22.85711,14.76189 57.14299,34.76162 78.09571,41.42772 20.95275,6.6662 28.57122,-7e-4 25.23828,-15.7129 -3.33298,-15.71223 -17.62109,-40.47828 4.75976,-37.62107 22.38089,2.85725 81.43051,33.33457 115.24024,49.04887 33.80976,15.7142 42.38062,16.6665 13.33594,-24.75786 -29.04469,-41.42441 -95.71803,-125.24363 -119.52735,-161.91015 -23.80932,-36.66652 -4.76257,-26.1891 26.18946,-10.95117 30.95202,15.23792 73.81141,35.23774 57.62109,0 -16.19033,-35.23779 -91.42907,-125.71483 -110.47656,-158.09571 -19.0475,-32.38084 18.09426,-6.66637 46.18945,12.85742 28.09519,19.52376 47.14296,32.85621 22.85742,-15.71484 C 580.95274,606.32934 513.33261,495.85206 472.38086,441.56641 451.5003,413.8871 437.55215,400.82457 422.64648,400.91016 Z"
         style="opacity:0.503;fill:#000000;stroke:#000000;stroke-width:0.99999994px;stroke-linecap:butt;stroke-linejoin:miter;stroke-opacity:1"
         inkscape:connector-curvature="0" />
    </g>
    <g
       id="g1067"
       transform="matrix(0.85685501,0,0,0.88460903,14.739013,-88.625392)">
      <path
         style="fill:#000080;stroke:#00a9ff;stroke-width:5;stroke-linecap:butt;stroke-linejoin:miter;stroke-miterlimit:4;stroke-dasharray:none;stroke-opacity:1;paint-order:normal"
         d="m 97.896099,115.44527 c -12.473241,12.4731 -33.639907,36.91556 -41.955318,48.25491 -8.315411,11.33936 -3.779749,9.57549 2.89752,7.18175 6.677269,-2.39373 15.497334,-5.41775 10.709938,2.51933 -4.787395,7.93708 -23.182899,26.83657 -29.230446,34.5221 -6.047548,7.68554 0.251966,4.15781 6.551414,1.26008 6.299448,-2.89773 12.599365,-5.1657 8.693924,2.77125 -3.905442,7.93695 -18.017269,26.08073 -26.584734,36.6641 -8.567465,10.58337 -11.591225,13.60713 -3.52687,12.09505 8.064356,-1.51209 27.213473,-7.55918 35.906896,-9.44918 8.693422,-1.89 6.929502,0.3779 3.149376,4.78805 -3.780125,4.41016 -9.575014,10.9609 -3.022987,10.20485 6.552028,-0.75605 25.45003,-8.8192 36.411168,-11.59097 10.96114,-2.77177 13.98499,-0.25189 20.0326,3.65385 6.04761,3.90575 15.11912,9.19746 20.66286,10.96121 5.54375,1.76375 7.55963,-1.6e-4 6.67779,-4.15735 -0.88185,-4.1572 -4.66214,-10.70971 1.25946,-9.95374 5.92161,0.75598 21.54482,8.81957 30.49031,12.9773 8.9455,4.15772 11.21337,4.4097 3.52863,-6.5505 -7.68474,-10.96021 -25.32543,-33.13708 -31.62498,-42.83843 -6.29955,-9.70135 -1.25986,-6.92952 6.92953,-2.89782 8.18939,4.0317 19.52888,9.32346 15.24519,1.4e-4 -4.28369,-9.32333 -24.19065,-33.26207 -29.2303,-41.82951 -5.03965,-8.56743 4.78774,-1.76385 12.22126,3.40182 7.43352,5.16566 12.47323,8.69346 6.04768,-4.15763 -6.42555,-12.85109 -24.31661,-42.08156 -35.15176,-56.44464 -10.83514,-14.36308 -14.61491,-13.85911 -27.088151,-1.38602 z"
         id="path1063"
         inkscape:connector-curvature="0"
         inkscape:path-effect="#path-effect817"
         inkscape:original-d="m 106.58928,103.47619 c -21.166398,24.4422 -42.333065,48.88466 -63.499996,73.32738 4.536033,-1.76417 9.071695,-3.52804 13.607143,-5.29167 8.819089,-3.02386 17.639154,-6.04788 26.458333,-9.07142 -18.393913,18.89786 -36.789415,37.79735 -55.184521,56.69642 6.299957,-3.52809 12.599469,-7.05582 18.898809,-10.58333 6.299552,-2.26801 12.599469,-4.53598 18.898809,-6.80357 -14.110134,18.14167 -28.221958,36.28545 -42.333333,54.42857 -3.023594,3.02359 -6.047355,6.04735 -9.071429,9.07143 19.152734,-6.04842 38.301852,-12.09551 57.45238,-18.14286 -1.763596,2.26755 -3.527512,4.53545 -5.291667,6.80357 -5.796118,6.55217 -11.591004,13.10292 -17.386903,19.65477 18.899881,-8.0641 37.797883,-16.12725 56.696425,-24.19048 3.02403,2.51953 6.04788,5.03941 9.07143,7.55952 9.07161,5.29136 18.14312,10.58307 27.21429,15.875 2.01612,-1.76414 4.03201,-3.52804 6.04761,-5.29167 -3.77896,-6.55093 -7.55925,-13.10344 -11.33928,-19.65476 15.62308,8.06313 31.2463,16.12672 46.86905,24.19049 2.2681,0.25169 4.53597,0.50368 6.80357,0.75594 -17.63682,-22.1726 -35.27751,-44.34947 -52.91667,-66.52381 5.03994,2.77156 10.07963,5.54339 15.11905,8.31548 11.33934,5.2913 22.67883,10.58307 34.01786,15.875 C 166.81396,206.53768 146.90701,182.59894 127,158.66071 c 9.82763,6.8033 19.65502,13.60688 29.48214,20.41072 5.03992,3.52749 10.07963,7.05529 15.11905,10.58333 -17.89042,-29.23011 -35.78148,-58.46058 -53.67262,-87.69048 -3.77949,0.50371 -7.55926,1.00768 -11.33929,1.51191 z" />
      <path
         style="opacity:0.503;fill:#000000;stroke:#000000;stroke-width:0.99999994px;stroke-linecap:butt;stroke-linejoin:miter;stroke-opacity:1"
         d="m 422.64648,400.91016 c -3.98854,32.31661 -0.12849,529.00653 0.13086,561.86523 7.48753,3.28233 14.41974,8.05365 22.9375,13.55469 22.85711,14.76189 57.14299,34.76162 78.09571,41.42772 20.95275,6.6662 28.57122,-7e-4 25.23828,-15.7129 -3.33298,-15.71223 -17.62109,-40.47828 4.75976,-37.62107 22.38089,2.85725 81.43051,33.33457 115.24024,49.04887 33.80976,15.7142 42.38062,16.6665 13.33594,-24.75786 -29.04469,-41.42441 -95.71803,-125.24363 -119.52735,-161.91015 -23.80932,-36.66652 -4.76257,-26.1891 26.18946,-10.95117 30.95202,15.23792 73.81141,35.23774 57.62109,0 -16.19033,-35.23779 -91.42907,-125.71483 -110.47656,-158.09571 -19.0475,-32.38084 18.09426,-6.66637 46.18945,12.85742 28.09519,19.52376 47.14296,32.85621 22.85742,-15.71484 C 580.95274,606.32934 513.33261,495.85206 472.38086,441.56641 451.5003,413.8871 437.55215,400.82457 422.64648,400.91016 Z"
         transform="scale(0.26458333)"
         id="path1065"
         inkscape:connector-curvature="0" />
    </g>
  </g>
</svg>
