<?xml version="1.0" encoding="UTF-8" standalone="no"?>
<!-- Created with Inkscape (http://www.inkscape.org/) -->

<svg
   xmlns:dc="http://purl.org/dc/elements/1.1/"
   xmlns:cc="http://creativecommons.org/ns#"
   xmlns:rdf="http://www.w3.org/1999/02/22-rdf-syntax-ns#"
   xmlns:svg="http://www.w3.org/2000/svg"
   xmlns="http://www.w3.org/2000/svg"
   xmlns:sodipodi="http://sodipodi.sourceforge.net/DTD/sodipodi-0.dtd"
   xmlns:inkscape="http://www.inkscape.org/namespaces/inkscape"
   width="210mm"
   height="297mm"
   viewBox="0 0 210 297"
   version="1.1"
   id="svg3767"
   sodipodi:docname="largered.svg"
   inkscape:version="0.92.3 (2405546, 2018-03-11)">
  <defs
     id="defs3761" />
  <sodipodi:namedview
     id="base"
     pagecolor="#ffffff"
     bordercolor="#666666"
     borderopacity="1.0"
     inkscape:pageopacity="0.0"
     inkscape:pageshadow="2"
     inkscape:zoom="0.35"
     inkscape:cx="409.95272"
     inkscape:cy="560"
     inkscape:document-units="mm"
     inkscape:current-layer="layer1"
     showgrid="false"
     inkscape:snap-nodes="true"
     inkscape:snap-smooth-nodes="true"
     inkscape:object-nodes="false"
     inkscape:window-width="1016"
     inkscape:window-height="713"
     inkscape:window-x="768"
     inkscape:window-y="95"
     inkscape:window-maximized="0" />
  <metadata
     id="metadata3764">
    <rdf:RDF>
      <cc:Work
         rdf:about="">
        <dc:format>image/svg+xml</dc:format>
        <dc:type
           rdf:resource="http://purl.org/dc/dcmitype/StillImage" />
        <dc:title />
      </cc:Work>
    </rdf:RDF>
  </metadata>
  <g
     inkscape:label="Layer 1"
     inkscape:groupmode="layer"
     id="layer1">
    <g
       id="g4624"
       transform="matrix(1.6007855,0,0,1.6007855,39.461925,-133.56958)">
      <rect
         y="170.75595"
         x="24.190477"
         height="97.51786"
         width="30.238094"
         id="rect4604"
         style="opacity:1;fill:#803300;stroke-width:0.26458332" />
      <path
         transform="scale(0.26458333)"
         id="path4608"
         d="m 148.57227,645.37695 v 368.57225 h 57.14257 V 645.37695 Z"
         style="opacity:0.27399998;fill:#000000;stroke:#000000;stroke-width:0.99999994px;stroke-linecap:butt;stroke-linejoin:miter;stroke-opacity:1"
         inkscape:connector-curvature="0" />
    </g>
    <g
       id="g4628"
       transform="matrix(1.6007855,0,0,1.6007855,-61.582711,14.064769)">
      <circle
         r="50.270832"
         cy="106.87797"
         cx="102.43154"
         id="path3769"
         style="fill:#008000;stroke-width:0.26458332" />
      <path
         id="path3773"
         transform="scale(0.26458333)"
         d="m 387.14258,213.94727 v 380 a 190,190 0 0 0 190,-190 190,190 0 0 0 -190,-190 z"
         style="opacity:0.28699999;fill:#803300;stroke:#000000;stroke-width:0.99999994px;stroke-linecap:butt;stroke-linejoin:miter;stroke-opacity:1"
         inkscape:connector-curvature="0" />
    </g>
    <g
       id="g4667"
       transform="matrix(1.3483619,0,0,1.3483619,-35.709881,-32.152177)">
      <circle
         style="fill:#008000;stroke-width:0.26458332"
         id="circle4663"
         cx="102.43154"
         cy="106.87797"
         r="50.270832" />
      <path
         style="opacity:0.28699999;fill:#803300;stroke:#000000;stroke-width:0.99999994px;stroke-linecap:butt;stroke-linejoin:miter;stroke-opacity:1"
         d="m 387.14258,213.94727 v 380 a 190,190 0 0 0 190,-190 190,190 0 0 0 -190,-190 z"
         transform="scale(0.26458333)"
         id="path4665"
         inkscape:connector-curvature="0" />
    </g>
    <g
       transform="matrix(1.0122389,0,0,1.0122389,-1.2580672,-54.391476)"
       id="g4684">
      <circle
         r="50.270832"
         cy="106.87797"
         cx="102.43154"
         id="circle4680"
         style="fill:#008000;stroke-width:0.26458332" />
      <path
         inkscape:connector-curvature="0"
         id="path4682"
         transform="scale(0.26458333)"
         d="m 387.14258,213.94727 v 380 a 190,190 0 0 0 190,-190 190,190 0 0 0 -190,-190 z"
         style="opacity:0.28699999;fill:#803300;stroke:#000000;stroke-width:0.99999994px;stroke-linecap:butt;stroke-linejoin:miter;stroke-opacity:1" />
    </g>
    <path
       style="opacity:0.27399998;fill:#ff0000;stroke-width:1.21011758"
       d="M 83.460054,262.89294 C 79.915891,262.03525 72.29215,259.00332 66.518408,256.15531 52.095375,249.04089 38.552032,235.61456 31.501678,221.44113 18.802262,195.9113 19.984361,166.455 34.646754,143.06992 l 4.848882,-7.73348 -1.868321,-5.82847 c -2.956698,-9.22379 -2.572755,-28.21948 0.76597,-37.896582 2.848416,-8.255978 9.607371,-20.353427 12.897006,-23.083582 1.57263,-1.305167 1.782739,-3.026663 1.122207,-9.19462 C 49.980393,36.622528 64.405628,13.781021 85.754601,6.5379381 88.702324,5.5378599 93.700729,4.3322501 96.862158,3.8588074 L 102.61022,2.9980022 V 133.8281 264.6582 l -6.353121,-0.10289 c -3.494214,-0.0566 -9.252882,-0.80466 -12.797045,-1.66234 z"
       id="path5255"
       inkscape:connector-curvature="0" />
    <path
       style="opacity:0.27399998;fill:#ff0000;stroke-width:1.21011758"
       d="m 92.929278,264.64807 c 0,-1.01969 -1.151503,-1.27221 -3.583434,-0.78582 -1.970885,0.39417 -3.894261,0.21374 -4.274165,-0.40095 -0.379903,-0.61469 -1.490124,-0.81088 -2.467153,-0.43595 -0.977032,0.37492 -1.776425,0.0789 -1.776425,-0.65791 0,-0.73678 -0.753772,-1.3396 -1.675049,-1.3396 -3.143651,0 -20.698215,-9.56626 -26.762714,-14.58418 -12.823831,-10.6108 -20.891176,-22.91063 -26.179032,-39.91374 -2.262269,-7.27435 -2.790201,-11.62515 -2.711308,-22.34454 0.116111,-15.77621 3.427147,-27.72587 11.298532,-40.77679 l 4.874264,-8.08165 -1.962596,-7.6389 C 36.262957,122.05505 35.912021,116.8715 36.373743,107.94797 37.093924,94.029418 40.497785,83.932378 48.154557,73.001976 52.673694,66.550695 52.777467,66.156678 53.184671,53.903155 53.550108,42.906594 54.055112,40.432072 57.35501,33.468426 65.245023,16.818463 78.627508,7.0038545 97.467221,4.050447 L 102.61022,3.2442067 V 133.95119 c 0,123.66983 -0.11402,130.70791 -2.11771,130.72353 -1.164736,0.01 -3.342945,0.34489 -4.840468,0.74621 -1.753461,0.4699 -2.722764,0.19477 -2.722764,-0.77286 z"
       id="path5257"
       inkscape:connector-curvature="0" />
    <path
       style="opacity:0.27399998;fill:#ff0000;stroke-width:1.21011758"
       d="m 99.887453,265.10693 2.722767,-0.61705 V 133.88134 c 0,-113.320306 0.23238,-130.6085316 1.75561,-130.6085316 10.614,0 25.8672,7.2711806 34.58097,16.4847036 9.51021,10.055648 12.49578,17.700933 13.07204,33.474156 l 0.47678,13.050273 5.1937,7.745178 c 7.9698,11.885044 10.5016,19.712774 11.16709,34.525911 0.41477,9.23244 0.0512,14.68155 -1.32946,19.93138 l -1.9003,7.22515 3.51974,5.485 c 26.25961,40.92207 11.39511,94.56445 -32.04783,115.65279 -12.15356,5.89968 -17.61368,7.3613 -30.85799,8.26046 -4.99173,0.3389 -7.850635,0.3385 -6.353117,-8.4e-4 z"
       id="path5259"
       inkscape:connector-curvature="0" />
    <path
       style="opacity:0.27399998;fill:#ff0000;stroke-width:1.21011758"
       d="m 92.38122,264.56598 c 0.379992,-0.61486 2.56469,-1.11789 4.854887,-1.11789 2.290197,0 4.233633,-0.13614 4.318733,-0.30254 0.0851,-0.16639 0.49352,-58.38837 0.90759,-129.38218 0.41406,-70.993818 1.13187,-129.4584807 1.59512,-129.9214831 1.42542,-1.4246612 13.29165,1.9416736 20.90588,5.9307959 8.90541,4.6655772 18.66785,14.2234182 22.19737,21.7321682 2.85432,6.072279 5.00166,18.130534 5.04026,28.303217 0.0205,5.393864 0.80536,7.523277 5.37896,14.593347 10.11548,15.636919 13.61081,34.458305 9.79264,52.730605 -1.75179,8.38341 -1.7755,9.73791 -0.20117,11.49611 0.98153,1.09617 3.73347,5.88804 6.11541,10.64861 16.61031,33.19745 8.14778,73.40379 -20.4568,97.19239 -7.99664,6.65027 -26.02339,15.30522 -35.09341,16.84892 -10.61249,1.80623 -26.173866,2.57211 -25.35547,1.24793 z"
       id="path5261"
       inkscape:connector-curvature="0" />
  </g>
</svg>
