<?xml version="1.0" encoding="UTF-8" standalone="no"?>
<!-- Created with Inkscape (http://www.inkscape.org/) -->

<svg
   xmlns:dc="http://purl.org/dc/elements/1.1/"
   xmlns:cc="http://creativecommons.org/ns#"
   xmlns:rdf="http://www.w3.org/1999/02/22-rdf-syntax-ns#"
   xmlns:svg="http://www.w3.org/2000/svg"
   xmlns="http://www.w3.org/2000/svg"
   xmlns:sodipodi="http://sodipodi.sourceforge.net/DTD/sodipodi-0.dtd"
   xmlns:inkscape="http://www.inkscape.org/namespaces/inkscape"
   width="210mm"
   height="297mm"
   viewBox="0 0 210 297"
   version="1.1"
   id="svg3767"
   sodipodi:docname="largeorange.svg"
   inkscape:version="0.92.3 (2405546, 2018-03-11)">
  <defs
     id="defs3761" />
  <sodipodi:namedview
     id="base"
     pagecolor="#ffffff"
     bordercolor="#666666"
     borderopacity="1.0"
     inkscape:pageopacity="0.0"
     inkscape:pageshadow="2"
     inkscape:zoom="0.35"
     inkscape:cx="409.95272"
     inkscape:cy="560"
     inkscape:document-units="mm"
     inkscape:current-layer="layer1"
     showgrid="false"
     inkscape:snap-nodes="true"
     inkscape:snap-smooth-nodes="true"
     inkscape:object-nodes="false"
     inkscape:window-width="1016"
     inkscape:window-height="713"
     inkscape:window-x="212"
     inkscape:window-y="196"
     inkscape:window-maximized="0" />
  <metadata
     id="metadata3764">
    <rdf:RDF>
      <cc:Work
         rdf:about="">
        <dc:format>image/svg+xml</dc:format>
        <dc:type
           rdf:resource="http://purl.org/dc/dcmitype/StillImage" />
        <dc:title />
      </cc:Work>
    </rdf:RDF>
  </metadata>
  <g
     inkscape:label="Layer 1"
     inkscape:groupmode="layer"
     id="layer1">
    <g
       id="g4624"
       transform="matrix(1.6064675,0,0,1.6064675,39.524209,-134.80948)">
      <rect
         y="170.75595"
         x="24.190477"
         height="97.51786"
         width="30.238094"
         id="rect4604"
         style="opacity:1;fill:#803300;stroke-width:0.26458332" />
      <path
         transform="scale(0.26458333)"
         id="path4608"
         d="m 148.57227,645.37695 v 368.57225 h 57.14257 V 645.37695 Z"
         style="opacity:0.27399998;fill:#000000;stroke:#000000;stroke-width:0.99999994px;stroke-linecap:butt;stroke-linejoin:miter;stroke-opacity:1"
         inkscape:connector-curvature="0" />
    </g>
    <g
       id="g4628"
       transform="matrix(1.6064675,0,0,1.6064675,-61.879089,13.348893)">
      <circle
         r="50.270832"
         cy="106.87797"
         cx="102.43154"
         id="path3769"
         style="fill:#008000;stroke-width:0.26458332" />
      <path
         id="path3773"
         transform="scale(0.26458333)"
         d="m 387.14258,213.94727 v 380 a 190,190 0 0 0 190,-190 190,190 0 0 0 -190,-190 z"
         style="opacity:0.28699999;fill:#803300;stroke:#000000;stroke-width:0.99999994px;stroke-linecap:butt;stroke-linejoin:miter;stroke-opacity:1"
         inkscape:connector-curvature="0" />
    </g>
    <g
       id="g4667"
       transform="matrix(1.3531478,0,0,1.3531478,-35.914422,-33.032101)">
      <circle
         style="fill:#008000;stroke-width:0.26458332"
         id="circle4663"
         cx="102.43154"
         cy="106.87797"
         r="50.270832" />
      <path
         style="opacity:0.28699999;fill:#803300;stroke:#000000;stroke-width:0.99999994px;stroke-linecap:butt;stroke-linejoin:miter;stroke-opacity:1"
         d="m 387.14258,213.94727 v 380 a 190,190 0 0 0 190,-190 190,190 0 0 0 -190,-190 z"
         transform="scale(0.26458333)"
         id="path4665"
         inkscape:connector-curvature="0" />
    </g>
    <g
       transform="matrix(1.0158318,0,0,1.0158318,-1.3403209,-55.350339)"
       id="g4684">
      <circle
         r="50.270832"
         cy="106.87797"
         cx="102.43154"
         id="circle4680"
         style="fill:#008000;stroke-width:0.26458332" />
      <path
         inkscape:connector-curvature="0"
         id="path4682"
         transform="scale(0.26458333)"
         d="m 387.14258,213.94727 v 380 a 190,190 0 0 0 190,-190 190,190 0 0 0 -190,-190 z"
         style="opacity:0.28699999;fill:#803300;stroke:#000000;stroke-width:0.99999994px;stroke-linecap:butt;stroke-linejoin:miter;stroke-opacity:1" />
    </g>
    <path
       style="opacity:0.27399998;fill:#ffff00;stroke-width:1.21441293"
       d="M 83.678505,263.06029 C 80.121766,262.19955 72.470964,259.15686 66.676728,256.29875 52.2025,249.15908 38.611085,235.68508 31.535705,221.46134 18.791213,195.8409 19.977507,166.28004 34.691946,142.81195 l 4.866092,-7.76093 -1.874953,-5.84916 c -2.967193,-9.25653 -2.581886,-28.31964 0.768689,-38.0311 2.858527,-8.28528 9.641472,-20.425671 12.942785,-23.165507 1.578211,-1.309807 1.789067,-3.037415 1.126188,-9.227257 C 50.08001,35.986721 64.556448,13.064138 85.981204,5.7953449 88.939381,4.7917165 93.955536,3.5818282 97.128178,3.1067042 L 102.89665,2.2428438 V 133.53734 264.83182 l -6.375666,-0.10322 c -3.506619,-0.0569 -9.285729,-0.80751 -12.842479,-1.66823 z"
       id="path5381"
       inkscape:connector-curvature="0" />
    <path
       style="opacity:0.27399998;fill:#ffff00;stroke-width:1.21441293"
       d="M 88.323687,263.5962 C 66.282703,259.76491 42.812467,242.39784 32.494261,222.28457 25.889545,209.41 23.39713,198.81462 23.505624,184.07335 c 0.116515,-15.8322 3.439311,-27.82427 11.338635,-40.92153 l 4.891566,-8.11033 -1.969562,-7.66601 C 36.313886,121.7225 35.961702,116.52053 36.425065,107.56534 37.147801,93.597373 40.563744,83.464497 48.247694,72.495298 52.782873,66.021121 52.887012,65.625701 53.295664,53.328686 53.662396,42.293094 54.169193,39.809788 57.480805,32.821422 65.398823,16.112362 78.82881,6.2629157 97.735397,3.2990244 L 102.89665,2.4899226 V 133.66086 264.83182 l -4.554046,-0.14285 c -2.504726,-0.0785 -7.013238,-0.57031 -10.018917,-1.09277 z"
       id="path5383"
       inkscape:connector-curvature="0" />
    <path
       style="opacity:0.27399998;fill:#ffff00;stroke-width:1.21441293"
       d="m 99.557017,265.21898 3.339633,-0.54105 V 133.59828 c 0,-113.729115 0.2332,-131.0796536 1.76184,-131.0796536 10.65168,0 25.95903,7.2969892 34.70372,16.5432176 9.54396,10.091338 12.54014,17.763761 13.11843,33.592972 l 0.47848,13.096597 5.21214,7.772671 c 7.99808,11.927224 10.53887,19.782741 11.20671,34.648466 0.41625,9.26521 0.0515,14.73365 -1.33417,20.00212 l -1.90703,7.25079 3.53222,5.50448 c 26.35282,41.06732 11.43556,94.9001 -32.16157,116.0633 -12.51607,6.07564 -18.11457,7.53619 -31.63984,8.25437 -5.30762,0.28183 -8.147373,0.26895 -6.310563,-0.0286 z"
       id="path5385"
       inkscape:connector-curvature="0" />
    <path
       style="opacity:0.27399998;fill:#ffff00;stroke-width:1.21441293"
       d="m 103.11768,134.38313 c 0.21239,-71.746793 0.78819,-130.850492 1.27955,-131.3415677 1.42841,-1.4276139 15.69497,2.9371933 22.72665,6.9531543 8.11031,4.6319914 16.33886,13.0354274 20.17302,20.6017984 3.12128,6.159549 5.32642,17.985537 5.36662,28.780701 0.0193,5.197354 0.7511,7.517212 3.74272,11.865352 11.3212,16.454814 15.37035,35.525232 11.60832,54.672092 -1.99143,10.1354 -1.98264,10.40172 0.45693,13.82777 3.83591,5.38705 9.42066,18.04342 11.52337,26.11473 2.51179,9.64151 2.50609,28.62312 -0.011,38.45493 -6.02201,23.51693 -21.11441,41.70142 -43.69033,52.64149 -10.55624,5.11545 -20.88448,7.87824 -29.45152,7.87824 h -4.10998 z"
       id="path5389"
       inkscape:connector-curvature="0" />
    <path
       style="opacity:0.27399998;fill:#ffff00;stroke-width:1.21441293"
       d="M 87.716492,263.03037 C 63.460076,258.5156 40.34823,239.98545 30.133347,216.8625 c -4.201994,-9.51185 -6.137638,-19.66115 -6.137638,-32.18194 0,-15.21218 2.447151,-24.94462 9.673808,-38.4732 l 5.955499,-11.14889 -1.95325,-9.49612 c -3.767067,-18.31434 0.474758,-37.982217 11.71529,-54.319782 3.203161,-4.655627 3.718664,-6.487924 3.718664,-13.217609 0,-30.135519 16.315881,-49.6243073 45.84409,-54.7592577 l 3.94684,-0.6863579 0.004,29.4191546 c 0.002,16.180536 0.36028,38.819163 0.7961,50.308064 0.75571,19.922148 0.9101,20.912118 3.33592,21.390448 2.46925,0.48689 2.46576,0.50637 -0.11949,0.66691 l -2.66311,0.16539 -0.37297,34.91437 c -0.20513,19.2029 -0.17261,35.87072 0.0723,37.03959 0.29975,1.43077 1.68868,2.17747 4.25045,2.28509 l 3.8052,0.15987 -4.25045,0.75095 -4.25043,0.75093 -0.31934,42.20086 -0.31935,42.20085 -3.32389,-0.10958 c -1.828151,-0.0603 -7.149296,-0.82161 -11.824797,-1.69185 z"
       id="path5401"
       inkscape:connector-curvature="0" />
  </g>
</svg>
