<?xml version="1.0" encoding="UTF-8" standalone="no"?>
<!-- Created with Inkscape (http://www.inkscape.org/) -->

<svg
   xmlns:dc="http://purl.org/dc/elements/1.1/"
   xmlns:cc="http://creativecommons.org/ns#"
   xmlns:rdf="http://www.w3.org/1999/02/22-rdf-syntax-ns#"
   xmlns:svg="http://www.w3.org/2000/svg"
   xmlns="http://www.w3.org/2000/svg"
   xmlns:sodipodi="http://sodipodi.sourceforge.net/DTD/sodipodi-0.dtd"
   xmlns:inkscape="http://www.inkscape.org/namespaces/inkscape"
   width="210mm"
   height="297mm"
   viewBox="0 0 210 297"
   version="1.1"
   id="svg3767"
   sodipodi:docname="mediumorange.svg"
   inkscape:version="0.92.3 (2405546, 2018-03-11)">
  <defs
     id="defs3761" />
  <sodipodi:namedview
     id="base"
     pagecolor="#ffffff"
     bordercolor="#666666"
     borderopacity="1.0"
     inkscape:pageopacity="0.0"
     inkscape:pageshadow="2"
     inkscape:zoom="0.35"
     inkscape:cx="282.0135"
     inkscape:cy="560"
     inkscape:document-units="mm"
     inkscape:current-layer="layer1"
     showgrid="false"
     inkscape:snap-nodes="true"
     inkscape:snap-smooth-nodes="true"
     inkscape:object-nodes="false"
     inkscape:window-width="1016"
     inkscape:window-height="713"
     inkscape:window-x="669"
     inkscape:window-y="294"
     inkscape:window-maximized="0" />
  <metadata
     id="metadata3764">
    <rdf:RDF>
      <cc:Work
         rdf:about="">
        <dc:format>image/svg+xml</dc:format>
        <dc:type
           rdf:resource="http://purl.org/dc/dcmitype/StillImage" />
        <dc:title />
      </cc:Work>
    </rdf:RDF>
  </metadata>
  <g
     inkscape:label="Layer 1"
     inkscape:groupmode="layer"
     id="layer1">
    <g
       id="g4624"
       transform="matrix(1.3904639,0,0,1.3904639,50.014959,-77.898611)">
      <rect
         y="170.75595"
         x="24.190477"
         height="97.51786"
         width="30.238094"
         id="rect4604"
         style="opacity:1;fill:#803300;stroke-width:0.26458332" />
      <path
         transform="scale(0.26458333)"
         id="path4608"
         d="m 148.57227,645.37695 v 368.57225 h 57.14257 V 645.37695 Z"
         style="opacity:0.27399998;fill:#000000;stroke:#000000;stroke-width:0.99999994px;stroke-linecap:butt;stroke-linejoin:miter;stroke-opacity:1"
         inkscape:connector-curvature="0" />
    </g>
    <g
       id="g4628"
       transform="matrix(1.3904639,0,0,1.3904639,-37.753781,33.520595)">
      <circle
         r="50.270832"
         cy="106.87797"
         cx="102.43154"
         id="path3769"
         style="fill:#008000;stroke-width:0.26458332" />
      <path
         id="path3773"
         transform="scale(0.26458333)"
         d="m 387.14258,213.94727 v 380 a 190,190 0 0 0 190,-190 190,190 0 0 0 -190,-190 z"
         style="opacity:0.28699999;fill:#803300;stroke:#000000;stroke-width:0.99999994px;stroke-linecap:butt;stroke-linejoin:miter;stroke-opacity:1"
         inkscape:connector-curvature="0" />
    </g>
    <g
       id="g4667"
       transform="matrix(1.1712054,0,0,1.1712054,-15.280291,-6.6240704)">
      <circle
         style="fill:#008000;stroke-width:0.26458332"
         id="circle4663"
         cx="102.43154"
         cy="106.87797"
         r="50.270832" />
      <path
         style="opacity:0.28699999;fill:#803300;stroke:#000000;stroke-width:0.99999994px;stroke-linecap:butt;stroke-linejoin:miter;stroke-opacity:1"
         d="m 387.14258,213.94727 v 380 a 190,190 0 0 0 190,-190 190,190 0 0 0 -190,-190 z"
         transform="scale(0.26458333)"
         id="path4665"
         inkscape:connector-curvature="0" />
    </g>
    <path
       style="opacity:0.27399998;fill:#ffff00;stroke-width:1.05112457"
       d="m 86.558505,249.19289 c -24.144036,-6.91027 -43.630958,-26.96674 -49.214019,-50.65238 -2.06417,-8.75705 -2.065395,-25.06829 -0.0026,-33.05965 1.811078,-7.01581 6.631072,-17.90303 10.054594,-22.71092 2.249662,-3.15936 2.251446,-3.21013 0.411449,-11.72617 C 40.448577,96.982099 63.845024,64.76113 99.053168,60.47033 l 6.042092,-0.736347 -0.008,95.727737 -0.008,95.72773 -6.034503,-0.0748 c -3.318978,-0.0412 -8.938158,-0.90594 -12.487073,-1.92168 z"
       id="path5391"
       inkscape:connector-curvature="0" />
    <path
       style="opacity:0.27399998;fill:#ffff00;stroke-width:1.05112457"
       d="M 89.56847,249.58982 C 73.878979,246.1824 57.337851,234.71436 47.722834,220.57804 41.073316,210.8017 38.05888,203.00031 36.636232,191.88583 34.59028,175.90175 37.017539,162.92995 44.812638,148.18928 l 4.719431,-8.92452 -1.33303,-6.84235 C 44.072027,111.23874 49.610776,92.288244 64.221989,77.600817 73.875256,67.897199 83.975163,63.200788 101.15729,60.426068 l 3.94172,-0.636543 v 95.699965 95.69996 l -4.46728,-0.0836 c -2.457007,-0.0459 -7.435472,-0.72818 -11.06326,-1.51606 z"
       id="path5393"
       inkscape:connector-curvature="0" />
    <path
       style="opacity:0.27399998;fill:#ffff00;stroke-width:1.05112457"
       d="M 93.536637,250.06913 C 69.130223,246.42172 44.822306,224.42526 38.330956,200.113 c -2.193032,-8.21364 -2.22445,-27.31889 -0.05816,-35.36693 0.893051,-3.31779 3.820715,-10.40681 6.505926,-15.75338 l 4.882198,-9.72104 -1.18688,-6.44142 C 44.435227,110.91081 50.189601,91.751226 65.149284,77.308872 74.715466,68.073502 84.681589,63.497137 101.68285,60.532951 l 3.41616,-0.59561 v 95.626049 95.62606 l -2.8906,-0.12818 c -1.58982,-0.0705 -5.492121,-0.51696 -8.671773,-0.99214 z"
       id="path5395"
       inkscape:connector-curvature="0" />
    <path
       style="opacity:0.27399998;fill:#ffff00;stroke-width:1.05112457"
       d="m 102.20841,251.52456 2.8906,-0.46831 V 155.37188 59.687514 l 5.5184,0.695822 c 13.57,1.711057 25.80856,7.703672 35.47545,17.370565 14.31179,14.311789 19.83312,34.154699 15.18726,54.580979 l -1.63074,7.1698 3.37132,4.99535 c 4.93185,7.30761 9.04332,18.7789 10.40909,29.04207 4.01964,30.20576 -12.68776,59.5346 -41.16307,72.25934 -8.68906,3.88287 -14.32266,5.2004 -24.56677,5.74544 -4.61017,0.24529 -7.08136,0.23524 -5.49154,-0.0223 z"
       id="path5397"
       inkscape:connector-curvature="0" />
    <path
       style="opacity:0.27399998;fill:#ffff00;stroke-width:1.05112457"
       d="M 105.09901,155.67564 V 59.859941 l 4.46728,0.618016 c 14.65864,2.027917 27.99635,8.784483 37.60137,19.047963 13.59085,14.522555 18.34116,33.71537 13.52486,54.64491 -1.12805,4.90199 -1.03633,5.29396 2.70777,11.5717 6.40544,10.74004 9.16428,20.20604 9.75326,33.46488 0.62023,13.96248 -0.90043,21.11829 -7.25529,34.14156 -9.79197,20.06706 -31.80501,35.44762 -53.63761,37.47676 l -7.16164,0.6656 z"
       id="path5399"
       inkscape:connector-curvature="0" />
  </g>
</svg>
