<?xml version="1.0" encoding="UTF-8" standalone="no"?>
<!-- Created with Inkscape (http://www.inkscape.org/) -->

<svg
   xmlns:dc="http://purl.org/dc/elements/1.1/"
   xmlns:cc="http://creativecommons.org/ns#"
   xmlns:rdf="http://www.w3.org/1999/02/22-rdf-syntax-ns#"
   xmlns:svg="http://www.w3.org/2000/svg"
   xmlns="http://www.w3.org/2000/svg"
   xmlns:sodipodi="http://sodipodi.sourceforge.net/DTD/sodipodi-0.dtd"
   xmlns:inkscape="http://www.inkscape.org/namespaces/inkscape"
   width="210mm"
   height="297mm"
   viewBox="0 0 210 297"
   version="1.1"
   id="svg8"
   inkscape:version="0.92.3 (2405546, 2018-03-11)"
   sodipodi:docname="bluesmall.svg">
  <defs
     id="defs2">
    <inkscape:path-effect
       only_selected="false"
       apply_with_weight="true"
       apply_no_weight="true"
       helper_size="0"
       steps="2"
       weight="33.333333"
       is_visible="true"
       id="path-effect823"
       effect="bspline" />
    <inkscape:path-effect
       effect="bspline"
       id="path-effect817"
       is_visible="true"
       weight="33.333333"
       steps="2"
       helper_size="0"
       apply_no_weight="true"
       apply_with_weight="true"
       only_selected="false" />
  </defs>
  <sodipodi:namedview
     id="base"
     pagecolor="#ffffff"
     bordercolor="#666666"
     borderopacity="1.0"
     inkscape:pageopacity="0.0"
     inkscape:pageshadow="2"
     inkscape:zoom="0.35"
     inkscape:cx="-64.285714"
     inkscape:cy="560"
     inkscape:document-units="mm"
     inkscape:current-layer="layer1"
     showgrid="false"
     inkscape:window-width="1920"
     inkscape:window-height="1017"
     inkscape:window-x="-8"
     inkscape:window-y="-8"
     inkscape:window-maximized="1" />
  <metadata
     id="metadata5">
    <rdf:RDF>
      <cc:Work
         rdf:about="">
        <dc:format>image/svg+xml</dc:format>
        <dc:type
           rdf:resource="http://purl.org/dc/dcmitype/StillImage" />
        <dc:title></dc:title>
      </cc:Work>
    </rdf:RDF>
  </metadata>
  <g
     inkscape:label="Layer 1"
     inkscape:groupmode="layer"
     id="layer1">
    <g
       id="g1033"
       transform="translate(26.458333,202.59524)">
      <rect
         y="15.029762"
         x="65.011902"
         height="60.476189"
         width="30.238094"
         id="rect1018"
         style="opacity:0.503;fill:#aa4400;stroke:#a02c2c;stroke-width:5;stroke-linejoin:miter;stroke-miterlimit:4;stroke-dasharray:none;stroke-opacity:1;paint-order:normal" />
      <path
         id="path1020"
         transform="scale(0.26458333)"
         d="M 302.85742,56.804688 V 285.37695 H 360 V 56.804688 Z"
         style="opacity:0.453;fill:#000000;stroke:#000000;stroke-width:0.99999994px;stroke-linecap:butt;stroke-linejoin:miter;stroke-opacity:1"
         inkscape:connector-curvature="0" />
    </g>
    <g
       id="g1037">
      <path
         inkscape:original-d="m 106.58928,103.47619 c -21.166398,24.4422 -42.333065,48.88466 -63.499996,73.32738 4.536033,-1.76417 9.071695,-3.52804 13.607143,-5.29167 8.819089,-3.02386 17.639154,-6.04788 26.458333,-9.07142 -18.393913,18.89786 -36.789415,37.79735 -55.184521,56.69642 6.299957,-3.52809 12.599469,-7.05582 18.898809,-10.58333 6.299552,-2.26801 12.599469,-4.53598 18.898809,-6.80357 -14.110134,18.14167 -28.221958,36.28545 -42.333333,54.42857 -3.023594,3.02359 -6.047355,6.04735 -9.071429,9.07143 19.152734,-6.04842 38.301852,-12.09551 57.45238,-18.14286 -1.763596,2.26755 -3.527512,4.53545 -5.291667,6.80357 -5.796118,6.55217 -11.591004,13.10292 -17.386903,19.65477 18.899881,-8.0641 37.797883,-16.12725 56.696425,-24.19048 3.02403,2.51953 6.04788,5.03941 9.07143,7.55952 9.07161,5.29136 18.14312,10.58307 27.21429,15.875 2.01612,-1.76414 4.03201,-3.52804 6.04761,-5.29167 -3.77896,-6.55093 -7.55925,-13.10344 -11.33928,-19.65476 15.62308,8.06313 31.2463,16.12672 46.86905,24.19049 2.2681,0.25169 4.53597,0.50368 6.80357,0.75594 -17.63682,-22.1726 -35.27751,-44.34947 -52.91667,-66.52381 5.03994,2.77156 10.07963,5.54339 15.11905,8.31548 11.33934,5.2913 22.67883,10.58307 34.01786,15.875 C 166.81396,206.53768 146.90701,182.59894 127,158.66071 c 9.82763,6.8033 19.65502,13.60688 29.48214,20.41072 5.03992,3.52749 10.07963,7.05529 15.11905,10.58333 -17.89042,-29.23011 -35.78148,-58.46058 -53.67262,-87.69048 -3.77949,0.50371 -7.55926,1.00768 -11.33929,1.51191 z"
         inkscape:path-effect="#path-effect817"
         inkscape:connector-curvature="0"
         id="path815"
         d="m 97.896099,115.44527 c -12.473241,12.4731 -33.639907,36.91556 -41.955318,48.25491 -8.315411,11.33936 -3.779749,9.57549 2.89752,7.18175 6.677269,-2.39373 15.497334,-5.41775 10.709938,2.51933 -4.787395,7.93708 -23.182899,26.83657 -29.230446,34.5221 -6.047548,7.68554 0.251966,4.15781 6.551414,1.26008 6.299448,-2.89773 12.599365,-5.1657 8.693924,2.77125 -3.905442,7.93695 -18.017269,26.08073 -26.584734,36.6641 -8.567465,10.58337 -11.591225,13.60713 -3.52687,12.09505 8.064356,-1.51209 27.213473,-7.55918 35.906896,-9.44918 8.693422,-1.89 6.929502,0.3779 3.149376,4.78805 -3.780125,4.41016 -9.575014,10.9609 -3.022987,10.20485 6.552028,-0.75605 25.45003,-8.8192 36.411168,-11.59097 10.96114,-2.77177 13.98499,-0.25189 20.0326,3.65385 6.04761,3.90575 15.11912,9.19746 20.66286,10.96121 5.54375,1.76375 7.55963,-1.6e-4 6.67779,-4.15735 -0.88185,-4.1572 -4.66214,-10.70971 1.25946,-9.95374 5.92161,0.75598 21.54482,8.81957 30.49031,12.9773 8.9455,4.15772 11.21337,4.4097 3.52863,-6.5505 -7.68474,-10.96021 -25.32543,-33.13708 -31.62498,-42.83843 -6.29955,-9.70135 -1.25986,-6.92952 6.92953,-2.89782 8.18939,4.0317 19.52888,9.32346 15.24519,1.4e-4 -4.28369,-9.32333 -24.19065,-33.26207 -29.2303,-41.82951 -5.03965,-8.56743 4.78774,-1.76385 12.22126,3.40182 7.43352,5.16566 12.47323,8.69346 6.04768,-4.15763 -6.42555,-12.85109 -24.31661,-42.08156 -35.15176,-56.44464 -10.83514,-14.36308 -14.61491,-13.85911 -27.088151,-1.38602 z"
         style="fill:#000080;stroke:#00a9ff;stroke-width:5;stroke-linecap:butt;stroke-linejoin:miter;stroke-opacity:1;stroke-miterlimit:4;stroke-dasharray:none;paint-order:normal" />
      <path
         id="path819"
         transform="scale(0.26458333)"
         d="M 422.64648 400.91016 C 418.65794 433.22677 422.51799 929.91669 422.77734 962.77539 C 430.26487 966.05772 437.19708 970.82904 445.71484 976.33008 C 468.57195 991.09197 502.85783 1011.0917 523.81055 1017.7578 C 544.7633 1024.424 552.38177 1017.7571 549.04883 1002.0449 C 545.71585 986.33267 531.42774 961.56662 553.80859 964.42383 C 576.18948 967.28108 635.2391 997.7584 669.04883 1013.4727 C 702.85859 1029.1869 711.42945 1030.1392 682.38477 988.71484 C 653.34008 947.29043 586.66674 863.47121 562.85742 826.80469 C 539.0481 790.13817 558.09485 800.61559 589.04688 815.85352 C 619.9989 831.09144 662.85829 851.09126 646.66797 815.85352 C 630.47764 780.61573 555.2389 690.13869 536.19141 657.75781 C 517.14391 625.37697 554.28567 651.09144 582.38086 670.61523 C 610.47605 690.13899 629.52382 703.47144 605.23828 654.90039 C 580.95274 606.32934 513.33261 495.85206 472.38086 441.56641 C 451.5003 413.8871 437.55215 400.82457 422.64648 400.91016 z "
         style="fill:#000000;stroke:#000000;stroke-width:0.99999994px;stroke-linecap:butt;stroke-linejoin:miter;stroke-opacity:1;opacity:0.503" />
    </g>
  </g>
</svg>
