<?xml version="1.0" encoding="UTF-8" standalone="no"?>
<!-- Created with Inkscape (http://www.inkscape.org/) -->

<svg
   xmlns:dc="http://purl.org/dc/elements/1.1/"
   xmlns:cc="http://creativecommons.org/ns#"
   xmlns:rdf="http://www.w3.org/1999/02/22-rdf-syntax-ns#"
   xmlns:svg="http://www.w3.org/2000/svg"
   xmlns="http://www.w3.org/2000/svg"
   xmlns:sodipodi="http://sodipodi.sourceforge.net/DTD/sodipodi-0.dtd"
   xmlns:inkscape="http://www.inkscape.org/namespaces/inkscape"
   width="210mm"
   height="297mm"
   viewBox="0 0 210 297"
   version="1.1"
   id="svg8"
   inkscape:version="0.92.3 (2405546, 2018-03-11)"
   sodipodi:docname="smallgreen.svg">
  <defs
     id="defs2">
    <inkscape:path-effect
       effect="bspline"
       id="path-effect819"
       is_visible="true"
       weight="33.333333"
       steps="2"
       helper_size="0"
       apply_no_weight="true"
       apply_with_weight="true"
       only_selected="false" />
  </defs>
  <sodipodi:namedview
     id="base"
     pagecolor="#ffffff"
     bordercolor="#666666"
     borderopacity="1.0"
     inkscape:pageopacity="0.0"
     inkscape:pageshadow="2"
     inkscape:zoom="0.35"
     inkscape:cx="-64.285714"
     inkscape:cy="560"
     inkscape:document-units="mm"
     inkscape:current-layer="layer1"
     showgrid="false"
     inkscape:window-width="1920"
     inkscape:window-height="1017"
     inkscape:window-x="-8"
     inkscape:window-y="-8"
     inkscape:window-maximized="1" />
  <metadata
     id="metadata5">
    <rdf:RDF>
      <cc:Work
         rdf:about="">
        <dc:format>image/svg+xml</dc:format>
        <dc:type
           rdf:resource="http://purl.org/dc/dcmitype/StillImage" />
        <dc:title></dc:title>
      </cc:Work>
    </rdf:RDF>
  </metadata>
  <g
     inkscape:label="Layer 1"
     inkscape:groupmode="layer"
     id="layer1">
    <g
       id="g832">
      <rect
         y="214.6012"
         x="90.714279"
         height="79.375"
         width="31.75"
         id="rect823"
         style="opacity:1;fill:#803300;stroke:#aa4400;stroke-width:5;stroke-linejoin:miter;stroke-miterlimit:4;stroke-dasharray:none;stroke-opacity:1;paint-order:normal" />
      <path
         id="path825"
         transform="scale(0.26458333)"
         d="M 400 811.0918 L 400 1111.0918 L 462.85742 1111.0918 L 462.85742 811.0918 L 400 811.0918 z "
         style="fill:#000000;stroke:#000000;stroke-width:0.99999994px;stroke-linecap:butt;stroke-linejoin:miter;stroke-opacity:1;opacity:0.463" />
    </g>
    <g
       id="g841"
       transform="translate(6.047619,2.2678571)">
      <path
         inkscape:connector-curvature="0"
         id="path821"
         d="m 136.28433,249.00049 c -5.86095,-1.47986 -11.2881,-4.33752 -22.74476,-11.97628 -5.32437,-3.55003 -11.41563,-7.03086 -13.53611,-7.73518 -4.784766,-1.58924 -13.066265,-1.11843 -20.250486,1.15125 -5.832797,1.84273 -11.980976,2.68608 -14.667155,2.01189 -3.416356,-0.85745 -7.373454,-5.1474 -13.676765,-14.82717 -4.618477,-7.09244 -7.778541,-10.95787 -12.669114,-15.49703 -3.5837,-3.32619 -7.045622,-7.06815 -7.693162,-8.31547 -2.006457,-3.86493 -1.412194,-8.0385 3.096785,-21.74905 5.334024,-16.21928 5.670452,-21.10375 2.211703,-32.11091 -2.615066,-8.32221 -2.737966,-8.05918 6.286904,-13.45519 3.156328,-1.88717 8.184562,-4.92818 11.173851,-6.75778 6.039819,-3.69668 11.783145,-5.68005 16.447998,-5.68005 1.698302,0 7.844819,1.20857 13.658924,2.68571 15.309442,3.88954 20.085817,3.77734 34.383597,-0.8077 22.03118,-7.065 25.70665,-4.97973 39.32751,22.31247 5.89021,11.80224 8.44768,15.41399 17.45128,24.64537 4.50192,4.61582 8.53625,9.31542 8.96517,10.44355 1.41884,3.73183 0.81412,10.37009 -1.99663,21.91782 -2.74175,11.26429 -2.7748,11.58657 -2.64276,25.77004 0.12738,13.68238 0.0522,14.50641 -1.58674,17.38691 -2.15859,3.79387 -7.53159,7.44402 -14.04603,9.5422 -6.52723,2.10231 -21.11058,2.65638 -27.49401,1.0446 z"
         style="opacity:1;fill:#00ff00;stroke:#008000;stroke-width:5;stroke-linejoin:miter;stroke-miterlimit:4;stroke-dasharray:none;stroke-opacity:1;paint-order:normal" />
      <path
         id="path834"
         transform="scale(0.26458333)"
         d="m 505.75781,425.13867 c -15.2899,0.24335 -33.89521,5.12352 -58.61523,13.05078 -28.84564,9.25028 -47.43828,13.6811 -67.30469,13.56836 l -2.69531,2.19141 v 412.39844 c 0.2743,0.0858 0.55568,0.16666 0.82422,0.25586 8.01441,2.66199 31.0346,15.81889 51.1582,29.23632 43.30076,28.87091 63.81322,39.6705 85.96484,45.26368 24.12635,6.09176 79.24422,3.99847 103.91407,-3.94727 24.6215,-7.93013 44.92944,-21.72542 53.08789,-36.06445 6.19442,-10.88693 6.47948,-14.00191 5.99804,-65.71485 -0.49905,-53.60681 -0.37423,-54.82474 9.98828,-97.39843 10.62331,-43.64497 12.90747,-68.73529 7.54493,-82.83985 -1.62112,-4.2638 -16.86768,-22.02508 -33.88282,-39.4707 -34.02935,-34.89026 -43.69482,-48.54155 -65.95703,-93.14844 -36.19716,-72.52848 -53.81247,-97.95721 -90.02539,-97.38086 z"
         style="opacity:0.47300002;fill:#000000;stroke:#000000;stroke-width:0.99999994px;stroke-linecap:butt;stroke-linejoin:miter;stroke-opacity:1"
         inkscape:connector-curvature="0" />
    </g>
  </g>
</svg>
