<?xml version="1.0" encoding="UTF-8" standalone="no"?>
<!-- Created with Inkscape (http://www.inkscape.org/) -->

<svg
   xmlns:dc="http://purl.org/dc/elements/1.1/"
   xmlns:cc="http://creativecommons.org/ns#"
   xmlns:rdf="http://www.w3.org/1999/02/22-rdf-syntax-ns#"
   xmlns:svg="http://www.w3.org/2000/svg"
   xmlns="http://www.w3.org/2000/svg"
   xmlns:sodipodi="http://sodipodi.sourceforge.net/DTD/sodipodi-0.dtd"
   xmlns:inkscape="http://www.inkscape.org/namespaces/inkscape"
   width="210mm"
   height="297mm"
   viewBox="0 0 210 297"
   version="1.1"
   id="svg3767"
   inkscape:version="0.92.3 (2405546, 2018-03-11)"
   sodipodi:docname="smallblue.svg">
  <defs
     id="defs3761" />
  <sodipodi:namedview
     id="base"
     pagecolor="#ffffff"
     bordercolor="#666666"
     borderopacity="1.0"
     inkscape:pageopacity="0.0"
     inkscape:pageshadow="2"
     inkscape:zoom="0.35"
     inkscape:cx="409.95272"
     inkscape:cy="560"
     inkscape:document-units="mm"
     inkscape:current-layer="layer1"
     showgrid="false"
     inkscape:snap-nodes="true"
     inkscape:snap-smooth-nodes="true"
     inkscape:object-nodes="false"
     inkscape:window-width="1016"
     inkscape:window-height="713"
     inkscape:window-x="842"
     inkscape:window-y="128"
     inkscape:window-maximized="0" />
  <metadata
     id="metadata3764">
    <rdf:RDF>
      <cc:Work
         rdf:about="">
        <dc:format>image/svg+xml</dc:format>
        <dc:type
           rdf:resource="http://purl.org/dc/dcmitype/StillImage" />
        <dc:title />
      </cc:Work>
    </rdf:RDF>
  </metadata>
  <g
     inkscape:label="Layer 1"
     inkscape:groupmode="layer"
     id="layer1">
    <g
       id="g4624"
       transform="matrix(1.3379015,0,0,1.3379015,50.194764,-64.51607)">
      <rect
         y="170.75595"
         x="24.190477"
         height="97.51786"
         width="30.238094"
         id="rect4604"
         style="opacity:1;fill:#803300;stroke-width:0.26458332" />
      <path
         transform="scale(0.26458333)"
         id="path4608"
         d="m 148.57227,645.37695 v 368.57225 h 57.14257 V 645.37695 Z"
         style="opacity:0.27399998;fill:#000000;stroke:#000000;stroke-width:0.99999994px;stroke-linecap:butt;stroke-linejoin:miter;stroke-opacity:1"
         inkscape:connector-curvature="0" />
    </g>
    <g
       id="g4628"
       transform="matrix(1.3379015,0,0,1.3379015,-34.256134,31.565962)">
      <circle
         r="50.270832"
         cy="106.87797"
         cx="102.43154"
         id="path3769"
         style="fill:#008000;stroke-width:0.26458332" />
      <path
         id="path3773"
         transform="scale(0.26458333)"
         d="m 387.14258,213.94727 v 380 a 190,190 0 0 0 190,-190 190,190 0 0 0 -190,-190 z"
         style="opacity:0.28699999;fill:#803300;stroke:#000000;stroke-width:0.99999994px;stroke-linecap:butt;stroke-linejoin:miter;stroke-opacity:1"
         inkscape:connector-curvature="0" />
    </g>
    <path
       style="opacity:0.27399998;fill:#000080;stroke-width:1.01138985"
       d="m 86.967438,239.53111 c -2.96213,-0.71684 -9.333887,-3.25086 -14.159458,-5.63117 -11.334823,-5.5911 -23.175704,-17.08847 -28.824446,-27.98821 -22.170358,-42.77964 4.605827,-92.09948 53.173704,-97.94218 l 5.815492,-0.6996 v 66.86826 66.86826 l -5.309802,-0.086 c -2.92038,-0.0473 -7.73336,-0.67252 -10.69549,-1.38935 z"
       id="path5337"
       inkscape:connector-curvature="0" />
    <path
       style="opacity:0.27399998;fill:#000080;stroke-width:1.01138985"
       d="m 89.318968,239.92765 c -2.78133,-0.46249 -9.608207,-3.10196 -15.170852,-5.86546 -22.654909,-11.2549 -36.232154,-31.56341 -37.617654,-56.26758 -1.958953,-34.92923 24.466222,-65.3215 60.626776,-69.72841 l 5.815492,-0.70873 v 66.8245 66.8245 l -4.298412,-0.11895 c -2.36412,-0.0654 -6.57403,-0.49737 -9.35535,-0.95987 z"
       id="path5339"
       inkscape:connector-curvature="0" />
    <path
       style="opacity:0.27399998;fill:#000080;stroke-width:1.01138985"
       d="m 100.19141,241.32892 2.78132,-0.45061 v -66.78695 -66.78695 l 6.32119,0.71817 c 8.90364,1.01157 20.38543,4.84027 27.91322,9.3079 3.53166,2.09599 9.75838,7.30387 13.83715,11.57307 31.19111,32.64737 21.50213,85.79412 -19.24695,105.57479 -10.42366,5.05992 -15.08622,6.27631 -26.35035,6.87442 -4.4203,0.23472 -6.785312,0.22399 -5.25558,-0.0238 z"
       id="path5341"
       inkscape:connector-curvature="0" />
    <path
       style="opacity:0.27399998;fill:#000080;stroke-width:1.01138985"
       d="m 102.97273,174.51967 v -67.24972 l 5.81549,0.70064 c 7.62329,0.91844 22.95747,6.02372 28.06607,9.34417 15.19295,9.87501 26.00811,24.3927 30.4233,40.83863 2.62658,9.78358 2.4112,24.80005 -0.49168,34.28086 -6.04005,19.72681 -17.23349,32.85668 -35.99996,42.22785 -8.19553,4.0925 -14.29627,5.85935 -23.00912,6.66376 l -4.8041,0.44354 z"
       id="path5343"
       inkscape:connector-curvature="0" />
  </g>
</svg>
